<svg aria-hidden="true" style="position: absolute; width: 0; height: 0; overflow: hidden;" version="1.1" xmlns="http://www.w3.org/2000/svg" xmlns:xlink="http://www.w3.org/1999/xlink">
<defs>
<symbol id="icon-Frame-3" viewBox="0 0 73 32">
<path stroke-linejoin="miter" stroke-linecap="butt" stroke-miterlimit="4" stroke-width="4.5714" d="M0 2.286h73.143"></path>
<path stroke-linejoin="miter" stroke-linecap="butt" stroke-miterlimit="4" stroke-width="4.5714" d="M0 29.714h73.143"></path>
</symbol>
<symbol id="icon-bx-downloadsvg" viewBox="0 0 32 32">
<path d="M16 21.333l5.333-6.667h-4v-9.333h-2.667v9.333h-4l5.333 6.667z"></path>
<path d="M26.667 24h-21.333v-9.333h-2.667v9.333c0 1.471 1.196 2.667 2.667 2.667h21.333c1.471 0 2.667-1.196 2.667-2.667v-9.333h-2.667v9.333z"></path>
</symbol>
<symbol id="icon-instagram" viewBox="0 0 32 32">
<path d="M15.999 9.836c-1.635 0-3.203 0.65-4.36 1.806s-1.806 2.724-1.806 4.36c0 1.635 0.65 3.203 1.806 4.36s2.724 1.806 4.36 1.806c1.635 0 3.203-0.649 4.359-1.806s1.806-2.724 1.806-4.36c0-1.635-0.649-3.203-1.806-4.36s-2.724-1.806-4.36-1.806zM15.999 20.005c-1.062 0-2.081-0.422-2.832-1.173s-1.173-1.77-1.173-2.832c0-1.062 0.422-2.081 1.173-2.832s1.77-1.173 2.832-1.173 2.081 0.422 2.832 1.173c0.751 0.751 1.173 1.77 1.173 2.832s-0.422 2.081-1.173 2.832c-0.751 0.751-1.77 1.173-2.832 1.173z"></path>
<path d="M22.408 11.047c0.794 0 1.437-0.644 1.437-1.437s-0.643-1.437-1.437-1.437c-0.794 0-1.437 0.643-1.437 1.437s0.643 1.437 1.437 1.437z"></path>
<path d="M27.377 8.148c-0.309-0.797-0.78-1.521-1.385-2.125s-1.329-1.076-2.126-1.384c-0.933-0.35-1.918-0.54-2.915-0.56-1.284-0.056-1.691-0.072-4.947-0.072s-3.673 0-4.947 0.072c-0.995 0.019-1.98 0.209-2.912 0.56-0.797 0.308-1.522 0.779-2.126 1.384s-1.076 1.328-1.384 2.126c-0.35 0.933-0.539 1.918-0.559 2.915-0.057 1.283-0.075 1.689-0.075 4.947 0 3.256 0 3.671 0.075 4.947 0.020 0.997 0.208 1.981 0.559 2.916 0.309 0.797 0.781 1.521 1.386 2.125s1.329 1.076 2.126 1.384c0.93 0.364 1.915 0.567 2.913 0.6 1.284 0.056 1.691 0.073 4.947 0.073s3.673 0 4.947-0.073c0.996-0.020 1.982-0.209 2.915-0.559 0.797-0.309 1.521-0.781 2.125-1.385s1.076-1.328 1.385-2.125c0.351-0.933 0.539-1.917 0.559-2.915 0.057-1.283 0.075-1.689 0.075-4.947s0-3.671-0.075-4.947c-0.015-1.010-0.205-2.010-0.561-2.956zM25.753 20.857c-0.009 0.768-0.149 1.53-0.415 2.251-0.2 0.518-0.507 0.989-0.9 1.382s-0.864 0.699-1.383 0.899c-0.713 0.265-1.466 0.405-2.227 0.415-1.267 0.059-1.624 0.073-4.872 0.073-3.251 0-3.583 0-4.873-0.073-0.76-0.009-1.513-0.149-2.225-0.415-0.52-0.199-0.993-0.504-1.388-0.897s-0.703-0.864-0.904-1.384c-0.262-0.713-0.402-1.465-0.415-2.225-0.057-1.267-0.071-1.624-0.071-4.872 0-3.249 0-3.581 0.071-4.873 0.009-0.768 0.149-1.529 0.415-2.249 0.407-1.052 1.24-1.88 2.292-2.283 0.713-0.264 1.465-0.404 2.225-0.415 1.268-0.057 1.624-0.073 4.873-0.073s3.583 0 4.872 0.073c0.761 0.009 1.514 0.149 2.227 0.415 0.519 0.2 0.989 0.507 1.383 0.9s0.7 0.864 0.9 1.383c0.262 0.713 0.402 1.466 0.415 2.225 0.057 1.268 0.072 1.624 0.072 4.873 0 3.248 0 3.597-0.057 4.872h-0.015v-0.001z"></path>
</symbol>
<symbol id="icon-x" viewBox="0 0 32 32">
<path d="M24.040 4.667h4.273l-9.333 9.621 11.020 13.046h-8.659l-6.747-7.908-7.759 7.908h-4.273l10.008-10.276-10.57-12.391h8.883l6.128 7.253 7.028-7.253zM22.522 25.016h2.361l-15.293-18.184h-2.586l15.518 18.184z"></path>
</symbol>
<symbol id="icon-github" viewBox="0 0 32 32">
<path d="M16.035 2.667c-7.345 0-13.299 5.953-13.299 13.299 0 5.875 3.809 10.86 9.095 12.62 0.665 0.12 0.905-0.289 0.905-0.641 0-0.316-0.011-1.153-0.015-2.261-3.7 0.803-4.481-1.784-4.481-1.784-0.603-1.536-1.476-1.945-1.476-1.945-1.207-0.825 0.092-0.807 0.092-0.807 1.336 0.093 2.036 1.371 2.036 1.371 1.187 2.032 3.115 1.445 3.869 1.105 0.121-0.86 0.468-1.447 0.847-1.779-2.952-0.335-6.056-1.476-6.056-6.573 0-1.449 0.519-2.639 1.365-3.567-0.135-0.337-0.595-1.691 0.132-3.52 0 0 1.116-0.359 3.656 1.361 1.085-0.295 2.204-0.446 3.328-0.448 1.124 0.002 2.243 0.152 3.328 0.448 2.541-1.721 3.656-1.361 3.656-1.361 0.727 1.829 0.271 3.183 0.132 3.52 0.853 0.928 1.365 2.116 1.365 3.567 0 5.111-3.107 6.233-6.069 6.563 0.473 0.411 0.9 1.221 0.9 2.461 0 1.779-0.016 3.213-0.016 3.649 0 0.356 0.237 0.769 0.916 0.639 5.283-1.763 9.088-6.744 9.088-12.617 0-7.345-5.953-13.299-13.299-13.299z"></path>
</symbol>
<symbol id="icon-linkendin" viewBox="0 0 32 32">
<path d="M6.644 9.596c1.611 0 2.917-1.306 2.917-2.917s-1.306-2.917-2.917-2.917c-1.611 0-2.917 1.306-2.917 2.917s1.306 2.917 2.917 2.917z"></path>
<path d="M12.316 11.807v16.185h5.025v-8.004c0-2.112 0.397-4.157 3.016-4.157 2.583 0 2.615 2.415 2.615 4.291v7.872h5.028v-8.876c0-4.36-0.939-7.711-6.035-7.711-2.447 0-4.087 1.343-4.757 2.613h-0.068v-2.213h-4.824zM4.127 11.807h5.033v16.185h-5.033v-16.185z"></path>
</symbol>
</defs>
</svg>
