<svg aria-hidden="true" style="position: absolute; width: 0; height: 0; overflow: hidden;" version="1.1" xmlns="http://www.w3.org/2000/svg" xmlns:xlink="http://www.w3.org/1999/xlink">
<defs>
<symbol id="icon-Frame-3" viewBox="0 0 73 32">
<path stroke-linejoin="miter" stroke-linecap="butt" stroke-miterlimit="4" stroke-width="4.5714" d="M0 2.286h73.143"></path>
<path stroke-linejoin="miter" stroke-linecap="butt" stroke-miterlimit="4" stroke-width="4.5714" d="M0 29.714h73.143"></path>
</symbol>
<symbol id="icon-bx-downloadsvg" viewBox="0 0 32 32">
<path d="M16 21.333l5.333-6.667h-4v-9.333h-2.667v9.333h-4l5.333 6.667z"></path>
<path d="M26.667 24h-21.333v-9.333h-2.667v9.333c0 1.471 1.196 2.667 2.667 2.667h21.333c1.471 0 2.667-1.196 2.667-2.667v-9.333h-2.667v9.333z"></path>
</symbol>
<symbol id="icon-bxl-linkedinsvg" viewBox="0 0 32 32">
<path d="M6.644 9.596c1.611 0 2.917-1.306 2.917-2.917s-1.306-2.917-2.917-2.917c-1.611 0-2.917 1.306-2.917 2.917s1.306 2.917 2.917 2.917z"></path>
<path d="M12.316 11.807v16.185h5.025v-8.004c0-2.112 0.397-4.157 3.016-4.157 2.583 0 2.615 2.415 2.615 4.291v7.872h5.028v-8.876c0-4.36-0.939-7.711-6.035-7.711-2.447 0-4.087 1.343-4.757 2.613h-0.068v-2.213h-4.824zM4.127 11.807h5.033v16.185h-5.033v-16.185z"></path>
</symbol>
</defs>
</svg>
